<?xml version="1.0" encoding="iso-8859-1"?>
<!-- Uploaded to: SVG Repo, www.svgrepo.com, Generator: SVG Repo Mixer Tools -->
<!DOCTYPE svg PUBLIC "-//W3C//DTD SVG 1.1//EN" "http://www.w3.org/Graphics/SVG/1.1/DTD/svg11.dtd">
<svg fill="#CD3011" height="22px" width="22px" xmlns="http://www.w3.org/2000/svg" xmlns:xlink="http://www.w3.org/1999/xlink" 
	 viewBox="0 0 297 297" xml:space="preserve">
	<path d="M78.305,129.499c0,31.403,16.718,58.524,40.755,70.948c-8.062-18.687-12.192-44.901-12.192-70.948
		c0-26.048,4.131-52.262,12.192-70.948C95.022,70.974,78.305,98.095,78.305,129.499z"/>
	<path d="M126.231,129.499c0,51.583,15.609,78.184,22.269,78.184c6.659,0,22.269-26.601,22.269-78.184S155.159,51.315,148.5,51.315
		C141.841,51.315,126.231,77.916,126.231,129.499z"/>
	<path d="M218.695,129.499c0-31.404-16.718-58.525-40.755-70.948c8.062,18.686,12.192,44.9,12.192,70.948
		c0,26.047-4.131,52.262-12.192,70.948C201.977,188.023,218.695,160.902,218.695,129.499z"/>
	<path d="M190.133,9.683c0-5.348-4.335-9.683-9.682-9.683h-63.902c-5.347,0-9.682,4.335-9.682,9.683v11.86h83.266V9.683z"/>
	<path d="M106.867,249.315c0,5.347,4.335,9.683,9.682,9.683h7.077c-0.511,2.015-0.783,4.122-0.783,6.293v22.027
		c0,5.347,4.335,9.682,9.682,9.682s9.683-4.335,9.683-9.682v-22.027c0-3.47,2.823-6.293,6.293-6.293c3.47,0,6.293,2.823,6.293,6.293
		v22.027c0,5.347,4.336,9.682,9.683,9.682s9.682-4.335,9.682-9.682v-22.027c0-2.171-0.272-4.278-0.783-6.293h7.077
		c5.347,0,9.682-4.336,9.682-9.683v-11.86h-83.266V249.315z"/>
	<path d="M58.94,129.499c0-42.92,25.581-79.453,61.009-92.465h-15.55c-19.217,4.568-36.877,12.127-51.756,22.356
		c-26.846,18.455-41.63,43.354-41.63,70.108c0,26.754,14.784,51.652,41.63,70.108c14.879,10.229,32.539,17.787,51.756,22.355h15.55
		C84.521,208.952,58.94,172.419,58.94,129.499z"/>
	<path d="M244.356,59.391c-14.879-10.229-32.539-17.788-51.756-22.356h-15.55c35.428,13.012,61.009,49.545,61.009,92.465
		s-25.581,79.453-61.009,92.464h15.55c19.217-4.568,36.877-12.127,51.756-22.355c26.846-18.456,41.63-43.355,41.63-70.108
		C285.986,102.744,271.202,77.846,244.356,59.391z"/>
</svg>