<?xml version="1.0" encoding="iso-8859-1"?>
<!-- Uploaded to: SVG Repo, www.svgrepo.com, Generator: SVG Repo Mixer Tools -->
<svg height="25px" width="25px" version="1.1" id="Layer_1" xmlns="http://www.w3.org/2000/svg" xmlns:xlink="http://www.w3.org/1999/xlink" 
	 viewBox="0 0 512 512" xml:space="preserve">
<path style="fill:#FF4B4B;" d="M363.705,6.505C362.658,2.665,359.169,0,355.189,0H192.122c-3.98,0-7.469,2.665-8.516,6.505
	l-24.71,90.599h229.517L363.705,6.505z"/>
<path style="fill:#C83741;" d="M379.586,88.276H167.724c-4.875,0-8.828,3.953-8.828,8.828v370.759c0,4.875,3.953,8.828,8.828,8.828
	h211.862c4.875,0,8.828-3.953,8.828-8.828V97.103C388.414,92.228,384.462,88.276,379.586,88.276z"/>
<path style="fill:#FF4B4B;" d="M344.276,123.586H132.414c-4.875,0-8.828,3.953-8.828,8.828v370.759c0,4.875,3.953,8.828,8.828,8.828
	h211.862c4.875,0,8.828-3.953,8.828-8.828V132.414C353.103,127.539,349.152,123.586,344.276,123.586z"/>
<g>
	<path style="fill:#FFCF65;" d="M238.345,397.241c-43.81,0-79.448-35.638-79.448-79.448s35.638-79.448,79.448-79.448
		s79.448,35.638,79.448,79.448S282.155,397.241,238.345,397.241z M238.345,256c-34.069,0-61.793,27.724-61.793,61.793
		s27.724,61.793,61.793,61.793s61.793-27.724,61.793-61.793S272.414,256,238.345,256z"/>
	<circle style="fill:#FFCF65;" cx="238.345" cy="317.793" r="35.31"/>
	<path style="fill:#FFCF65;" d="M238.345,432.552c-24.181,0-47.345-7.509-67-21.716c-3.948-2.862-4.836-8.38-1.983-12.328
		c2.845-3.957,8.371-4.836,12.328-1.983c16.621,12.019,36.216,18.371,56.655,18.371c20.423,0,40.009-6.345,56.638-18.345
		c3.939-2.862,9.465-1.974,12.319,1.992c2.854,3.948,1.965,9.465-1.992,12.319C285.664,425.053,262.509,432.552,238.345,432.552z"/>
	<path style="fill:#FFCF65;" d="M300.164,240.733c-1.793,0-3.604-0.543-5.164-1.673c-16.62-12.017-36.215-18.37-56.655-18.37
		c-20.431,0-40.009,6.345-56.621,18.345c-3.975,2.854-9.483,1.965-12.328-1.983c-2.854-3.957-1.965-9.474,1.983-12.328
		c19.647-14.189,42.803-21.689,66.966-21.689c24.181,0,47.345,7.509,67,21.716c3.948,2.862,4.836,8.38,1.983,12.328
		C305.603,239.466,302.905,240.733,300.164,240.733z"/>
</g>
</svg>