<?xml version="1.0" encoding="iso-8859-1"?>
<!-- Uploaded to: SVG Repo, www.svgrepo.com, Generator: SVG Repo Mixer Tools -->
<svg height="25px" width="25px" version="1.1" id="Layer_1" xmlns="http://www.w3.org/2000/svg" xmlns:xlink="http://www.w3.org/1999/xlink" 
	 viewBox="0 0 512.001 512.001" xml:space="preserve">
<path style="fill:#E4B780;" d="M86.332,425.67c-3.242-3.242-3.242-8.499,0-11.742l106.392-106.392c3.242-3.242,8.5-3.242,11.742,0
	c3.242,3.242,3.242,8.499,0,11.742L98.074,425.67C94.83,428.912,89.574,428.912,86.332,425.67z"/>
<rect x="171.428" y="245.008" transform="matrix(-0.7071 0.7071 -0.7071 -0.7071 599.4513 300.852)" style="fill:#FF709D;" width="131.979" height="59.137"/>
<polygon style="fill:#FFD3C7;" points="229.866,189.351 322.651,282.134 356.814,247.971 326.077,185.923 264.029,155.187 "/>
<polygon style="fill:#F63E31;" points="264.029,155.187 356.814,247.971 390.977,213.808 360.241,151.76 298.192,121.024 "/>
<polygon style="fill:#FFD3C7;" points="332.356,86.861 298.192,121.024 390.977,213.808 425.14,179.645 394.404,117.597 "/>
<polygon style="fill:#F63E31;" points="459.303,145.481 428.567,83.434 366.519,52.698 332.356,86.861 425.14,179.645 "/>
<polygon style="fill:#FFD3C7;" points="493.466,111.318 464.222,47.78 400.682,18.534 366.519,52.698 459.303,145.481 "/>
<path style="fill:#FFD102;" d="M27.006,484.994c-3.242-3.242-3.242-8.499,0-11.742l28.214-28.214c3.242-3.242,8.5-3.242,11.742,0
	c3.242,3.242,3.242,8.499,0,11.742l-28.214,28.214C35.506,488.237,30.248,488.237,27.006,484.994z"/>
<path style="fill:#FFAA0E;" d="M86.332,509.568c-1.502-1.502-2.432-3.578-2.432-5.871v-39.902c0-4.586,3.717-8.303,8.304-8.304
	c4.584,0.001,8.302,3.719,8.303,8.303v39.902c0,4.586-3.717,8.303-8.304,8.304C89.909,512,87.834,511.07,86.332,509.568z"/>
<path style="fill:#FFD102;" d="M145.657,484.995l-28.215-28.215c-3.242-3.242-3.242-8.499,0-11.742c3.242-3.242,8.5-3.242,11.742,0
	l28.215,28.215c3.242,3.242,3.242,8.499,0,11.742C154.156,488.238,148.9,488.238,145.657,484.995z"/>
<g>
	<path style="fill:#FFAA0E;" d="M133.299,425.669c-1.502-1.502-2.432-3.578-2.432-5.871c0-4.586,3.717-8.303,8.304-8.304h36.932
		c4.585,0,8.302,3.72,8.303,8.303c0,4.586-3.717,8.303-8.304,8.304H139.17C136.877,428.101,134.802,427.171,133.299,425.669z"/>
	<path style="fill:#FFAA0E;" d="M86.332,378.704c-1.502-1.502-2.432-3.578-2.432-5.871v-36.935c0-4.586,3.717-8.303,8.304-8.304
		c4.584,0.001,8.302,3.719,8.303,8.303v36.935c0,4.586-3.717,8.303-8.304,8.304C89.911,381.136,87.835,380.208,86.332,378.704z"/>
</g>
<path style="fill:#FFD102;" d="M55.22,394.558l-28.215-28.215c-3.242-3.242-3.242-8.499,0-11.742c3.242-3.242,8.5-3.242,11.742,0
	l28.215,28.215c3.242,3.242,3.242,8.499,0,11.742S58.462,397.8,55.22,394.558z"/>
<path style="fill:#FFAA0E;" d="M2.432,425.669C0.93,424.166,0,422.091,0,419.798c0-4.586,3.717-8.303,8.304-8.304h39.902
	c4.584,0.001,8.302,3.719,8.303,8.303c0,4.586-3.717,8.303-8.304,8.304H8.303C6.01,428.101,3.934,427.172,2.432,425.669z"/>
<path style="fill:#E60048;" d="M511.689,14.681c1.837-9.739-4.63-16.205-14.368-14.368l-96.639,18.223l92.784,92.784L511.689,14.681
	z"/>
</svg>